<mxfile host="app.diagrams.net" modified="2023-07-23T17:27:23.217Z" agent="Mozilla/5.0 (Windows NT 10.0; Win64; x64) AppleWebKit/537.36 (KHTML, like Gecko) Chrome/114.0.0.0 Safari/537.36" etag="mDxC-_YWppsYfTtmHPUf" version="21.6.3" type="device">
  <diagram name="Page-1" id="9361dd3d-8414-5efd-6122-117bd74ce7a7">
    <mxGraphModel dx="1034" dy="508" grid="1" gridSize="10" guides="1" tooltips="1" connect="1" arrows="1" fold="1" page="0" pageScale="1.5" pageWidth="826" pageHeight="1169" background="none" math="0" shadow="0">
      <root>
        <mxCell id="0" />
        <mxCell id="1" parent="0" />
        <mxCell id="2" value="" style="fillColor=#CC4125;strokeColor=#660000" parent="1" vertex="1">
          <mxGeometry x="321" y="150" width="10" height="170" as="geometry" />
        </mxCell>
        <mxCell id="3" value="sign up" style="edgeStyle=none;verticalLabelPosition=top;verticalAlign=bottom;labelPosition=left;align=right" parent="1" edge="1">
          <mxGeometry width="100" height="100" as="geometry">
            <mxPoint x="200" y="156" as="sourcePoint" />
            <mxPoint x="325" y="156.5" as="targetPoint" />
            <Array as="points" />
            <mxPoint x="16" y="-7" as="offset" />
          </mxGeometry>
        </mxCell>
        <mxCell id="4" value="PollPlanet UI" style="shadow=1;fillColor=#A2C4C9;strokeColor=none" parent="1" vertex="1">
          <mxGeometry x="273.5" y="60" width="105" height="50" as="geometry" />
        </mxCell>
        <mxCell id="6" value="" style="fillColor=#CC4125;strokeColor=#660000" parent="1" vertex="1">
          <mxGeometry x="460.5" y="170" width="10" height="130" as="geometry" />
        </mxCell>
        <mxCell id="7" value="Node server" style="shadow=1;fillColor=#A2C4C9;strokeColor=none" parent="1" vertex="1">
          <mxGeometry x="414" y="60" width="105" height="50" as="geometry" />
        </mxCell>
        <mxCell id="8" value="" style="edgeStyle=none;endArrow=none;dashed=1" parent="1" source="7" target="6" edge="1">
          <mxGeometry x="272.3350694444445" y="165" width="100" height="100" as="geometry">
            <mxPoint x="347.2588734567901" y="110" as="sourcePoint" />
            <mxPoint x="347.5761959876544" y="165" as="targetPoint" />
          </mxGeometry>
        </mxCell>
        <mxCell id="9" value="Form Data" style="edgeStyle=none;verticalLabelPosition=top;verticalAlign=bottom" parent="1" edge="1">
          <mxGeometry x="220" y="92" width="100" height="100" as="geometry">
            <mxPoint x="331" y="200.5" as="sourcePoint" />
            <mxPoint x="461" y="200.5" as="targetPoint" />
          </mxGeometry>
        </mxCell>
        <mxCell id="21" value="" style="fillColor=#CC4125;strokeColor=#660000" parent="1" vertex="1">
          <mxGeometry x="670" y="210" width="10" height="90" as="geometry" />
        </mxCell>
        <mxCell id="22" value="Database" style="shadow=1;fillColor=#A2C4C9;strokeColor=none" parent="1" vertex="1">
          <mxGeometry x="622.5" y="60" width="105" height="50" as="geometry" />
        </mxCell>
        <mxCell id="23" value="" style="edgeStyle=none;endArrow=none;dashed=1" parent="1" source="FPgmOX6SYPWmQ99vwZZl-116" edge="1">
          <mxGeometry x="614.4878472222224" y="174.99999999999997" width="100" height="100" as="geometry">
            <mxPoint x="674.6527777777778" y="110" as="sourcePoint" />
            <mxPoint x="675" y="700" as="targetPoint" />
          </mxGeometry>
        </mxCell>
        <mxCell id="33" value="" style="edgeStyle=elbowEdgeStyle;elbow=horizontal;endArrow=none;dashed=1" parent="1" source="4" target="2" edge="1">
          <mxGeometry x="230.00000000000003" y="310" width="100" height="100" as="geometry">
            <mxPoint x="230.00000000000003" y="410" as="sourcePoint" />
            <mxPoint x="330" y="310" as="targetPoint" />
          </mxGeometry>
        </mxCell>
        <mxCell id="44" value="" style="edgeStyle=none;dashed=1;endArrow=none" parent="1" source="2" edge="1">
          <mxGeometry x="50" y="300" width="100" height="100" as="geometry">
            <mxPoint x="171" y="400" as="sourcePoint" />
            <mxPoint x="326" y="710" as="targetPoint" />
          </mxGeometry>
        </mxCell>
        <mxCell id="52" value="" style="edgeStyle=none;endArrow=none;dashed=1" parent="1" source="FPgmOX6SYPWmQ99vwZZl-114" edge="1">
          <mxGeometry x="376.5711805555559" y="339.6971450617284" width="100" height="100" as="geometry">
            <mxPoint x="465.608695652174" y="280" as="sourcePoint" />
            <mxPoint x="466" y="700" as="targetPoint" />
          </mxGeometry>
        </mxCell>
        <mxCell id="71" value="Administrator login" style="rounded=1;fontStyle=1;fillColor=#FFD966;strokeColor=none" parent="1" vertex="1">
          <mxGeometry x="50" y="20" width="200" height="30" as="geometry" />
        </mxCell>
        <mxCell id="FPgmOX6SYPWmQ99vwZZl-90" value="" style="edgeStyle=elbowEdgeStyle;elbow=horizontal;endArrow=none;dashed=1;" parent="1" edge="1">
          <mxGeometry x="230.00000000000003" y="310" width="100" height="100" as="geometry">
            <mxPoint x="200" y="720" as="sourcePoint" />
            <mxPoint x="197.33333333333337" y="110.48574686430982" as="targetPoint" />
            <Array as="points">
              <mxPoint x="197" y="383" />
            </Array>
          </mxGeometry>
        </mxCell>
        <mxCell id="FPgmOX6SYPWmQ99vwZZl-91" value="Administrator&lt;br&gt;" style="shape=umlActor;verticalLabelPosition=bottom;verticalAlign=top;html=1;outlineConnect=0;" parent="1" vertex="1">
          <mxGeometry x="180" y="59" width="33" height="31" as="geometry" />
        </mxCell>
        <mxCell id="FPgmOX6SYPWmQ99vwZZl-94" value="Alt" style="shape=umlFrame;whiteSpace=wrap;html=1;pointerEvents=0;" parent="1" vertex="1">
          <mxGeometry x="183" y="322" width="517" height="158" as="geometry" />
        </mxCell>
        <mxCell id="FPgmOX6SYPWmQ99vwZZl-95" value="Store Form Data to DB" style="edgeStyle=none;verticalLabelPosition=top;verticalAlign=bottom;exitX=1.017;exitY=0.115;exitDx=0;exitDy=0;exitPerimeter=0;" parent="1" edge="1">
          <mxGeometry width="100" height="100" as="geometry">
            <mxPoint x="470.6700000000001" y="212.5" as="sourcePoint" />
            <mxPoint x="674" y="210.5" as="targetPoint" />
            <mxPoint as="offset" />
          </mxGeometry>
        </mxCell>
        <mxCell id="FPgmOX6SYPWmQ99vwZZl-96" value="thank you message" style="html=1;verticalAlign=bottom;endArrow=open;dashed=1;endSize=8;edgeStyle=elbowEdgeStyle;elbow=vertical;curved=0;rounded=0;" parent="1" edge="1">
          <mxGeometry relative="1" as="geometry">
            <mxPoint x="670" y="230" as="sourcePoint" />
            <mxPoint x="468" y="230" as="targetPoint" />
          </mxGeometry>
        </mxCell>
        <mxCell id="FPgmOX6SYPWmQ99vwZZl-97" value="thank you message" style="html=1;verticalAlign=bottom;endArrow=open;dashed=1;endSize=8;edgeStyle=elbowEdgeStyle;elbow=vertical;curved=0;rounded=0;" parent="1" edge="1">
          <mxGeometry relative="1" as="geometry">
            <mxPoint x="460" y="236" as="sourcePoint" />
            <mxPoint x="330" y="236" as="targetPoint" />
            <mxPoint as="offset" />
          </mxGeometry>
        </mxCell>
        <mxCell id="FPgmOX6SYPWmQ99vwZZl-98" value="thank you message" style="html=1;verticalAlign=bottom;endArrow=open;dashed=1;endSize=8;edgeStyle=elbowEdgeStyle;elbow=vertical;curved=0;rounded=0;" parent="1" edge="1">
          <mxGeometry relative="1" as="geometry">
            <mxPoint x="320" y="243" as="sourcePoint" />
            <mxPoint x="200" y="243" as="targetPoint" />
            <mxPoint as="offset" />
          </mxGeometry>
        </mxCell>
        <mxCell id="FPgmOX6SYPWmQ99vwZZl-100" value="Login request" style="edgeStyle=none;verticalLabelPosition=top;verticalAlign=bottom;labelPosition=left;align=right" parent="1" edge="1">
          <mxGeometry width="100" height="100" as="geometry">
            <mxPoint x="202" y="264" as="sourcePoint" />
            <mxPoint x="327" y="264.5" as="targetPoint" />
            <Array as="points" />
            <mxPoint x="56" y="-5" as="offset" />
          </mxGeometry>
        </mxCell>
        <mxCell id="FPgmOX6SYPWmQ99vwZZl-101" value="Login identifiers" style="edgeStyle=none;verticalLabelPosition=top;verticalAlign=bottom" parent="1" edge="1">
          <mxGeometry width="100" height="100" as="geometry">
            <mxPoint x="332" y="272.5" as="sourcePoint" />
            <mxPoint x="462" y="272.5" as="targetPoint" />
            <mxPoint as="offset" />
          </mxGeometry>
        </mxCell>
        <mxCell id="FPgmOX6SYPWmQ99vwZZl-102" value="Login identifiers" style="edgeStyle=none;verticalLabelPosition=top;verticalAlign=bottom" parent="1" edge="1">
          <mxGeometry width="100" height="100" as="geometry">
            <mxPoint x="468" y="276.5" as="sourcePoint" />
            <mxPoint x="676" y="277" as="targetPoint" />
            <mxPoint as="offset" />
          </mxGeometry>
        </mxCell>
        <mxCell id="FPgmOX6SYPWmQ99vwZZl-104" value="" style="html=1;points=[];perimeter=orthogonalPerimeter;outlineConnect=0;targetShapes=umlLifeline;portConstraint=eastwest;newEdgeStyle={&quot;edgeStyle&quot;:&quot;elbowEdgeStyle&quot;,&quot;elbow&quot;:&quot;vertical&quot;,&quot;curved&quot;:0,&quot;rounded&quot;:0};" parent="1" vertex="1">
          <mxGeometry x="470.5" y="235" width="10" height="25" as="geometry" />
        </mxCell>
        <mxCell id="FPgmOX6SYPWmQ99vwZZl-105" value="check user in DB?" style="html=1;align=left;spacingLeft=2;endArrow=block;rounded=0;edgeStyle=orthogonalEdgeStyle;curved=0;rounded=0;" parent="1" edge="1">
          <mxGeometry relative="1" as="geometry">
            <mxPoint x="480.5" y="236" as="sourcePoint" />
            <Array as="points">
              <mxPoint x="497" y="236" />
              <mxPoint x="497" y="251" />
              <mxPoint x="486" y="251" />
              <mxPoint x="486" y="249" />
            </Array>
            <mxPoint x="477.5" y="249" as="targetPoint" />
            <mxPoint as="offset" />
          </mxGeometry>
        </mxCell>
        <mxCell id="FPgmOX6SYPWmQ99vwZZl-106" value="" style="endArrow=none;startArrow=none;endFill=0;startFill=0;endSize=8;html=1;verticalAlign=bottom;dashed=1;labelBackgroundColor=none;dashPattern=10 10;rounded=0;exitX=-0.005;exitY=0.646;exitDx=0;exitDy=0;exitPerimeter=0;entryX=1.003;entryY=0.659;entryDx=0;entryDy=0;entryPerimeter=0;" parent="1" edge="1">
          <mxGeometry width="160" relative="1" as="geometry">
            <mxPoint x="180.41499999999996" y="394.068" as="sourcePoint" />
            <mxPoint x="701.5509999999999" y="396.12199999999996" as="targetPoint" />
          </mxGeometry>
        </mxCell>
        <mxCell id="FPgmOX6SYPWmQ99vwZZl-107" value="status=ok" style="html=1;verticalAlign=bottom;endArrow=open;dashed=1;endSize=8;edgeStyle=elbowEdgeStyle;elbow=vertical;curved=0;rounded=0;entryX=0.002;entryY=0.336;entryDx=0;entryDy=0;entryPerimeter=0;" parent="1" edge="1">
          <mxGeometry x="-0.0024" relative="1" as="geometry">
            <mxPoint x="327" y="356" as="sourcePoint" />
            <mxPoint x="181.034" y="357.05423999999994" as="targetPoint" />
            <mxPoint as="offset" />
          </mxGeometry>
        </mxCell>
        <mxCell id="FPgmOX6SYPWmQ99vwZZl-108" value="welcome to use Poll system" style="edgeStyle=none;verticalLabelPosition=top;verticalAlign=bottom;labelPosition=left;align=right;exitX=0.002;exitY=0.534;exitDx=0;exitDy=0;exitPerimeter=0;" parent="1" edge="1">
          <mxGeometry width="100" height="100" as="geometry">
            <mxPoint x="183.034" y="380.6040600000001" as="sourcePoint" />
            <mxPoint x="330" y="380.5" as="targetPoint" />
            <Array as="points" />
            <mxPoint x="56" y="-5" as="offset" />
          </mxGeometry>
        </mxCell>
        <mxCell id="FPgmOX6SYPWmQ99vwZZl-109" value="&lt;br&gt;Else&lt;br&gt;status=no" style="html=1;verticalAlign=bottom;endArrow=open;dashed=1;endSize=8;edgeStyle=elbowEdgeStyle;elbow=vertical;curved=0;rounded=0;entryX=0.167;entryY=0.591;entryDx=0;entryDy=0;entryPerimeter=0;" parent="1" edge="1" target="FPgmOX6SYPWmQ99vwZZl-119">
          <mxGeometry x="-0.0069" relative="1" as="geometry">
            <mxPoint x="327" y="427" as="sourcePoint" />
            <mxPoint x="181.034" y="428.05423999999994" as="targetPoint" />
            <mxPoint as="offset" />
          </mxGeometry>
        </mxCell>
        <mxCell id="FPgmOX6SYPWmQ99vwZZl-110" value="re-login with correct info or sign up" style="edgeStyle=none;verticalLabelPosition=top;verticalAlign=bottom;labelPosition=left;align=right" parent="1" edge="1">
          <mxGeometry width="100" height="100" as="geometry">
            <mxPoint x="199" y="460" as="sourcePoint" />
            <mxPoint x="324" y="460.5" as="targetPoint" />
            <Array as="points" />
            <mxPoint x="59" as="offset" />
          </mxGeometry>
        </mxCell>
        <mxCell id="FPgmOX6SYPWmQ99vwZZl-112" value="store to DB" style="edgeStyle=none;verticalLabelPosition=top;verticalAlign=bottom;labelPosition=left;align=right" parent="1" edge="1">
          <mxGeometry width="100" height="100" as="geometry">
            <mxPoint x="469" y="547" as="sourcePoint" />
            <mxPoint x="680" y="547" as="targetPoint" />
            <Array as="points" />
            <mxPoint x="16" y="-7" as="offset" />
          </mxGeometry>
        </mxCell>
        <mxCell id="FPgmOX6SYPWmQ99vwZZl-113" value="" style="html=1;points=[];perimeter=orthogonalPerimeter;fillColor=strokeColor;strokeColor=#CC0000;" parent="1" vertex="1">
          <mxGeometry x="323" y="525" width="5" height="55" as="geometry" />
        </mxCell>
        <mxCell id="FPgmOX6SYPWmQ99vwZZl-115" value="" style="edgeStyle=none;endArrow=none;dashed=1" parent="1" target="FPgmOX6SYPWmQ99vwZZl-114" edge="1">
          <mxGeometry x="376.5711805555559" y="339.6971450617284" width="100" height="100" as="geometry">
            <mxPoint x="465.608695652174" y="280" as="sourcePoint" />
            <mxPoint x="466" y="580" as="targetPoint" />
          </mxGeometry>
        </mxCell>
        <mxCell id="FPgmOX6SYPWmQ99vwZZl-114" value="" style="html=1;points=[];perimeter=orthogonalPerimeter;fillColor=strokeColor;strokeColor=#CC0000;" parent="1" vertex="1">
          <mxGeometry x="463" y="538" width="5" height="42" as="geometry" />
        </mxCell>
        <mxCell id="FPgmOX6SYPWmQ99vwZZl-117" value="" style="edgeStyle=none;endArrow=none;dashed=1" parent="1" source="22" target="FPgmOX6SYPWmQ99vwZZl-116" edge="1">
          <mxGeometry x="614.4878472222224" y="174.99999999999997" width="100" height="100" as="geometry">
            <mxPoint x="675" y="110" as="sourcePoint" />
            <mxPoint x="675" y="570" as="targetPoint" />
            <Array as="points">
              <mxPoint x="675" y="320" />
            </Array>
          </mxGeometry>
        </mxCell>
        <mxCell id="FPgmOX6SYPWmQ99vwZZl-116" value="" style="html=1;points=[];perimeter=orthogonalPerimeter;fillColor=strokeColor;strokeColor=#CC0000;" parent="1" vertex="1">
          <mxGeometry x="675" y="543" width="5" height="27" as="geometry" />
        </mxCell>
        <mxCell id="FPgmOX6SYPWmQ99vwZZl-119" value="" style="fillColor=#CC4125;strokeColor=#660000" parent="1" vertex="1">
          <mxGeometry x="189" y="152" width="10" height="468" as="geometry" />
        </mxCell>
        <mxCell id="2lJ6hbckia2wUGVyLtlo-72" value="status=enter:status" style="html=1;verticalAlign=bottom;endArrow=open;dashed=1;endSize=8;edgeStyle=elbowEdgeStyle;elbow=vertical;curved=0;rounded=0;entryX=0.883;entryY=0.856;entryDx=0;entryDy=0;entryPerimeter=0;" parent="1" edge="1">
          <mxGeometry x="-0.0045" relative="1" as="geometry">
            <mxPoint x="680" y="294" as="sourcePoint" />
            <mxPoint x="469.3299999999999" y="294.28" as="targetPoint" />
            <mxPoint as="offset" />
          </mxGeometry>
        </mxCell>
        <mxCell id="2lJ6hbckia2wUGVyLtlo-73" value="status=enter:status" style="html=1;verticalAlign=bottom;endArrow=open;dashed=1;endSize=8;edgeStyle=elbowEdgeStyle;elbow=vertical;curved=0;rounded=0;" parent="1" edge="1">
          <mxGeometry relative="1" as="geometry">
            <mxPoint x="462" y="300" as="sourcePoint" />
            <mxPoint x="332" y="300" as="targetPoint" />
            <mxPoint as="offset" />
          </mxGeometry>
        </mxCell>
        <mxCell id="2lJ6hbckia2wUGVyLtlo-74" value="status=enter:status" style="html=1;verticalAlign=bottom;endArrow=open;dashed=1;endSize=8;edgeStyle=elbowEdgeStyle;elbow=vertical;curved=0;rounded=0;" parent="1" edge="1">
          <mxGeometry relative="1" as="geometry">
            <mxPoint x="319" y="309" as="sourcePoint" />
            <mxPoint x="199" y="309" as="targetPoint" />
            <mxPoint as="offset" />
          </mxGeometry>
        </mxCell>
        <mxCell id="nVJ7c3hDneocVyYFqvSL-71" value="&amp;nbsp;Form &lt;br&gt;validation" style="html=1;align=left;spacingLeft=2;endArrow=block;rounded=0;edgeStyle=orthogonalEdgeStyle;curved=0;rounded=0;" edge="1" parent="1">
          <mxGeometry relative="1" as="geometry">
            <mxPoint x="334" y="150" as="sourcePoint" />
            <Array as="points">
              <mxPoint x="364" y="180" />
            </Array>
            <mxPoint x="339" y="180" as="targetPoint" />
            <mxPoint as="offset" />
          </mxGeometry>
        </mxCell>
        <mxCell id="nVJ7c3hDneocVyYFqvSL-72" value="" style="html=1;points=[];perimeter=orthogonalPerimeter;outlineConnect=0;targetShapes=umlLifeline;portConstraint=eastwest;newEdgeStyle={&quot;edgeStyle&quot;:&quot;elbowEdgeStyle&quot;,&quot;elbow&quot;:&quot;vertical&quot;,&quot;curved&quot;:0,&quot;rounded&quot;:0};" vertex="1" parent="1">
          <mxGeometry x="328" y="150" width="10" height="40" as="geometry" />
        </mxCell>
        <mxCell id="nVJ7c3hDneocVyYFqvSL-75" value="add poll and questions" style="edgeStyle=none;verticalLabelPosition=top;verticalAlign=bottom;labelPosition=left;align=right" edge="1" parent="1">
          <mxGeometry width="100" height="100" as="geometry">
            <mxPoint x="201" y="531" as="sourcePoint" />
            <mxPoint x="326" y="531.5" as="targetPoint" />
            <Array as="points" />
            <mxPoint x="59" as="offset" />
          </mxGeometry>
        </mxCell>
        <mxCell id="nVJ7c3hDneocVyYFqvSL-76" value="add poll and questions" style="edgeStyle=none;verticalLabelPosition=top;verticalAlign=bottom;labelPosition=left;align=right;" edge="1" parent="1">
          <mxGeometry width="100" height="100" as="geometry">
            <mxPoint x="329" y="541" as="sourcePoint" />
            <mxPoint x="460" y="540" as="targetPoint" />
            <Array as="points" />
            <mxPoint x="59" as="offset" />
          </mxGeometry>
        </mxCell>
        <mxCell id="nVJ7c3hDneocVyYFqvSL-77" value="return message" style="html=1;verticalAlign=bottom;endArrow=open;dashed=1;endSize=8;edgeStyle=elbowEdgeStyle;elbow=vertical;curved=0;rounded=0;entryX=0.883;entryY=0.856;entryDx=0;entryDy=0;entryPerimeter=0;" edge="1" parent="1">
          <mxGeometry x="-0.0045" relative="1" as="geometry">
            <mxPoint x="677" y="564" as="sourcePoint" />
            <mxPoint x="466.3299999999999" y="564.28" as="targetPoint" />
            <mxPoint as="offset" />
          </mxGeometry>
        </mxCell>
        <mxCell id="nVJ7c3hDneocVyYFqvSL-78" value="return message" style="html=1;verticalAlign=bottom;endArrow=open;dashed=1;endSize=8;edgeStyle=elbowEdgeStyle;elbow=horizontal;curved=0;rounded=0;" edge="1" parent="1">
          <mxGeometry relative="1" as="geometry">
            <mxPoint x="455" y="572" as="sourcePoint" />
            <mxPoint x="325" y="572" as="targetPoint" />
            <mxPoint as="offset" />
          </mxGeometry>
        </mxCell>
        <mxCell id="nVJ7c3hDneocVyYFqvSL-80" value="return message" style="html=1;verticalAlign=bottom;endArrow=open;dashed=1;endSize=8;edgeStyle=elbowEdgeStyle;elbow=vertical;curved=0;rounded=0;" edge="1" parent="1">
          <mxGeometry relative="1" as="geometry">
            <mxPoint x="320" y="582" as="sourcePoint" />
            <mxPoint x="200" y="582" as="targetPoint" />
            <mxPoint as="offset" />
          </mxGeometry>
        </mxCell>
      </root>
    </mxGraphModel>
  </diagram>
</mxfile>
